<svg xmlns="http://www.w3.org/2000/svg" viewBox="0 0 512 512" style="enable-background:new 0 0 512 512" xml:space="preserve"><path style="fill:#fdcc00" d="M58.733 502.467c-23.893 0-42.667-19.627-42.667-42.667V263.533H101.4V459.8c0 23.893-18.773 42.667-42.667 42.667" transform="translate(1 1)"/><path style="fill:#fff" d="M41.667 459.8V263.533h-25.6V459.8c0 23.893 19.627 42.667 42.667 42.667 4.267 0 8.533-.853 12.8-2.56-17.067-5.12-29.867-21.334-29.867-40.107" transform="translate(1 1)"/><path style="fill:#ffe100" d="M101.4 7.533V459.8c0 23.893-18.773 42.667-42.667 42.667h392.534c23.893 0 42.667-18.773 42.667-42.667V7.533H101.4z" transform="translate(1 1)"/><path style="fill:#ffa800" d="M468.333 7.533V459.8c0 23.893-18.773 42.667-42.667 42.667h25.6c23.893 0 42.667-18.773 42.667-42.667V7.533h-25.6z" transform="translate(1 1)"/><path style="fill:#00da6c" d="M152.6 109.933h290.133v-51.2H152.6z" transform="translate(1 1)"/><path style="fill:#00ad55" d="M417.133 109.933h25.6v-51.2h-25.6z" transform="translate(1 1)"/><path d="M59.733 512c-28.16 0-51.2-23.04-51.2-51.2V256h102.4v204.8c0 28.16-23.04 51.2-51.2 51.2zM25.6 273.067V460.8c0 18.773 15.36 34.133 34.133 34.133s34.133-15.36 34.133-34.133V273.067H25.6z"/><path d="M452.267 512H59.733v-17.067c18.773 0 34.133-15.36 34.133-34.133V0h409.6v460.8c.001 28.16-23.039 51.2-51.199 51.2zM98.133 494.933h354.133c18.773 0 34.133-15.36 34.133-34.133V17.067H110.933V460.8c0 12.8-5.12 24.747-12.8 34.133z"/><path d="M443.733 170.667H307.2c-5.12 0-8.533-3.413-8.533-8.533 0-5.12 3.413-8.533 8.533-8.533h136.533c5.12 0 8.533 3.413 8.533 8.533.001 5.119-3.413 8.533-8.533 8.533zm0 51.2H307.2c-5.12 0-8.533-3.413-8.533-8.533 0-5.12 3.413-8.533 8.533-8.533h136.533c5.12 0 8.533 3.413 8.533 8.533.001 5.119-3.413 8.533-8.533 8.533zm-145.066 179.2H162.133c-5.12 0-8.533-3.413-8.533-8.533s3.413-8.533 8.533-8.533h136.533c5.12 0 8.533 3.413 8.533 8.533s-3.412 8.533-8.532 8.533zM443.733 281.6h-281.6c-5.12 0-8.533-3.413-8.533-8.533s3.413-8.533 8.533-8.533h281.6c5.12 0 8.533 3.413 8.533 8.533s-3.413 8.533-8.533 8.533zm0 51.2h-281.6c-5.12 0-8.533-3.413-8.533-8.533 0-5.12 3.413-8.533 8.533-8.533h281.6c5.12 0 8.533 3.413 8.533 8.533.001 5.12-3.413 8.533-8.533 8.533zM298.667 452.267H162.133c-5.12 0-8.533-3.413-8.533-8.533 0-5.12 3.413-8.533 8.533-8.533h136.533c5.12 0 8.533 3.413 8.533 8.533.001 5.119-3.412 8.533-8.532 8.533zm-110.934-230.4c-2.56 0-4.267-.853-5.973-2.56l-25.6-25.6c-3.413-3.413-3.413-8.533 0-11.947s8.533-3.413 11.947 0l25.6 25.6c3.413 3.413 3.413 8.533 0 11.947-1.707 1.706-3.414 2.56-5.974 2.56z"/><path d="M187.733 221.867c-2.56 0-4.267-.853-5.973-2.56-3.413-3.413-3.413-8.533 0-11.947l51.2-51.2c3.413-3.413 8.533-3.413 11.947 0 3.413 3.413 3.413 8.533 0 11.947l-51.2 51.2c-1.707 1.706-3.414 2.56-5.974 2.56zM384 452.267c-2.56 0-4.267-.853-5.973-2.56-3.413-3.413-3.413-8.533 0-11.947l51.2-51.2c3.413-3.413 8.533-3.413 11.947 0 3.413 3.413 3.413 8.533 0 11.947l-51.2 51.2c-1.707 1.706-3.414 2.56-5.974 2.56z"/><path d="M435.2 452.267c-2.56 0-4.267-.853-5.973-2.56l-51.2-51.2c-3.413-3.413-3.413-8.533 0-11.947 3.413-3.413 8.533-3.413 11.947 0l51.2 51.2c3.413 3.413 3.413 8.533 0 11.947-1.707 1.706-3.414 2.56-5.974 2.56zm17.067-332.8h-307.2V51.2h307.2v68.267zM162.133 102.4H435.2V68.267H162.133V102.4z"/></svg>