<svg xmlns="http://www.w3.org/2000/svg" viewBox="0 0 512 512" style="enable-background:new 0 0 512 512" xml:space="preserve"><ellipse style="fill:#785353" cx="155.992" cy="90.769" rx="52.178" ry="43.482"/><path style="fill:#6e4848" d="M188.603 123.38c-28.818 0-52.178-19.468-52.178-43.482 0-12.961 6.842-24.564 17.638-32.53-27.917.852-50.25 19.929-50.25 43.4 0 24.014 23.361 43.482 52.178 43.482 13.264 0 25.335-4.158 34.54-10.952-.644.02-1.277.082-1.928.082z"/><ellipse style="fill:#6e4848" cx="155.992" cy="199.473" rx="121.749" ry="117.401"/><path style="fill:#643c3e" d="M103.813 199.473c0-53.175 36.686-98.034 86.964-112.475-11.029-3.168-22.689-4.927-34.786-4.927-67.241 0-121.749 52.562-121.749 117.401 0 64.838 54.509 117.401 121.749 117.401 12.097 0 23.756-1.759 34.786-4.927-50.278-14.438-86.964-59.298-86.964-112.473z"/><path style="fill:#959cb5" d="M77.724 282.089H60.331c-9.606 0-17.393-7.786-17.393-17.393v-17.393c0-9.606 7.787-17.393 17.393-17.393h17.393v52.179zm156.535-52.178h17.393c9.606 0 17.393 7.787 17.393 17.393v17.393c0 9.606-7.786 17.393-17.393 17.393h-17.393v-52.179z"/><path style="fill:#00c3ff" d="M391.818 22.556c-40.388 6.693-72.543 39.801-78.298 80.334-5.187 36.539 10.365 69.71 36.502 89.79-7.334 13.407-15.58 23.553-21.362 29.841-2.27 2.469-.046 6.405 3.242 5.741 11.6-2.344 30.735-7.815 47.607-20.13 12.693 3.985 26.517 5.416 40.886 3.622 41.494-5.18 75.65-37.923 82.205-79.222 10.364-65.297-45.415-120.808-110.782-109.976z"/><circle style="fill:#87dcff" cx="408.187" cy="116.858" r="69.571"/><path style="fill:#e6af78" d="m287.776 397.149-77.599-32.333a17.393 17.393 0 0 1-10.703-16.056v-31.885H112.51v31.886a17.397 17.397 0 0 1-10.703 16.056l-77.6 32.333a26.087 26.087 0 0 0-16.055 24.081v52.178c0 9.605 7.788 17.393 17.393 17.393h260.892c9.605 0 17.393-7.788 17.393-17.393v-52.178a26.089 26.089 0 0 0-16.054-24.082z"/><path style="fill:#d29b6e" d="M112.51 316.875v31.886c0 2.693-.783 5.2-1.914 7.523l15.833 8.796a61.026 61.026 0 0 0 29.563 7.66 61.026 61.026 0 0 0 29.563-7.66l15.832-8.795c-1.132-2.324-1.914-4.831-1.914-7.523v-31.888H112.51z"/><path style="fill:#00c3ff" d="M303.83 473.41v-52.178a26.088 26.088 0 0 0-16.055-24.082l-63.403-26.417c-34.384 50.411-68.381 50.5-68.381 50.5s-33.996-.089-68.381-50.5L24.207 397.15a26.09 26.09 0 0 0-16.055 24.082v52.178c0 9.605 7.788 17.393 17.393 17.393h260.892c9.606 0 17.393-7.788 17.393-17.393z"/><path style="fill:#f0c087" d="M202.971 175.354c-57.33 41.977-133.943 37.164-133.943 37.164l7.031 77.338a34.786 34.786 0 0 0 17.749 27.258l45.291 25.161a34.79 34.79 0 0 0 33.787 0l45.291-25.161a34.784 34.784 0 0 0 17.749-27.258l7.03-77.338c-.001 0-22.139-14.829-39.985-37.164z"/><path style="fill:#e6af78" d="m119.617 268.547-4.216-59.026c-26.769 4.207-46.374 2.997-46.374 2.997l7.031 77.337a34.789 34.789 0 0 0 17.75 27.26l45.29 25.161c4.667 2.593 9.783 3.966 14.948 4.256-6.731-8.434-12.136-16.088-16.461-22.838-10.592-16.527-16.569-35.57-17.968-55.147z"/><path style="fill:#643c3e" d="M138.607 256c-3.236 0-6.344-1.809-7.839-4.917-.884-1.835-4.255-3.78-8.765-3.78-4.51 0-7.881 1.945-8.765 3.78a8.676 8.676 0 0 1-11.61 4.055 8.699 8.699 0 0 1-4.051-11.614c3.983-8.267 13.571-13.613 24.425-13.613s20.442 5.346 24.425 13.613c2.089 4.326.272 9.525-4.051 11.614a8.679 8.679 0 0 1-3.769.862zm67.975 0c-3.236 0-6.344-1.809-7.839-4.917-.884-1.835-4.255-3.78-8.765-3.78-4.51 0-7.881 1.945-8.765 3.78-2.072 4.326-7.253 6.148-11.61 4.055a8.699 8.699 0 0 1-4.051-11.614c3.983-8.267 13.571-13.613 24.425-13.613s20.442 5.346 24.425 13.613c2.089 4.326.272 9.525-4.051 11.614a8.682 8.682 0 0 1-3.769.862z"/><path style="fill:#00aaf0" d="m53.617 433.402-38.463-29.917c-4.398 4.734-7.001 11.021-7.001 17.746v52.178c0 9.605 7.788 17.393 17.393 17.393h34.786V447.13a17.398 17.398 0 0 0-6.715-13.728zm204.75 0 38.463-29.917c4.398 4.733 7.001 11.021 7.001 17.746v52.178c0 9.605-7.788 17.393-17.393 17.393h-34.786V447.13a17.392 17.392 0 0 1 6.715-13.728z"/><path d="M408.274 72.832c4.503 0 8.153-3.65 8.153-8.153s-3.65-8.153-8.153-8.153h-.087c-4.503 0-8.109 3.65-8.109 8.153s3.693 8.153 8.196 8.153zM290.912 389.623l-77.599-32.332a9.214 9.214 0 0 1-5.686-8.53v-16.46l14.509-8.06a42.901 42.901 0 0 0 21.908-33.647l.032-.351h7.576c14.086 0 25.546-11.46 25.546-25.546v-15.704c2.284-5.523 8.696-23.2 8.696-47.587 0-33.695-13.199-65.487-37.165-89.521a128.218 128.218 0 0 0-30.794-22.799c-.392-27.598-28.021-49.953-61.942-49.953S94.443 61.488 94.05 89.086a128.165 128.165 0 0 0-30.794 22.799c-23.966 24.034-37.165 55.825-37.165 89.521 0 24.387 6.413 42.063 8.696 47.587v15.704c0 14.086 11.46 25.546 25.546 25.546h7.576l.032.351a42.903 42.903 0 0 0 21.909 33.647l14.509 8.06v16.46a9.218 9.218 0 0 1-5.686 8.53l-77.599 32.332A34.15 34.15 0 0 0 0 421.231v52.178c0 14.086 11.46 25.546 25.546 25.546h260.892c14.086 0 25.546-11.46 25.546-25.546v-52.178a34.155 34.155 0 0 0-21.072-31.608zm-47.413 61.54v31.486H68.484v-31.486c0-10.46-4.684-20.205-12.851-26.739l-25.921-20.737 50.923-21.218c26.865 33.228 54.02 42.37 67.204 44.879v27.582c0 4.503 3.65 8.153 8.153 8.153s8.153-3.65 8.153-8.153v-27.582c13.184-2.509 40.338-11.651 67.204-44.879l50.923 21.218-25.921 20.737c-8.168 6.534-12.852 16.28-12.852 26.739zm17.393-186.467c0 5.095-4.145 9.24-9.24 9.24h-6.093l3.261-35.873h2.832c5.095 0 9.24 4.145 9.24 9.24v17.393zm-104.9-209.257c21.355 0 39.325 11.054 44.29 25.933-13.966-4.898-28.895-7.453-44.29-7.453s-30.323 2.555-44.29 7.453c4.964-14.878 22.934-25.933 44.29-25.933zM60.331 273.936c-5.095 0-9.24-4.145-9.24-9.24v-17.393c0-5.095 4.145-9.24 9.24-9.24h2.832l3.261 35.873h-6.093zm23.847 15.181-6.207-68.273c10.664-.067 29.363-.975 51.23-5.506 44.72-9.265 81.204-29.479 105.507-58.455a8.15 8.15 0 0 0-1.008-11.485 8.152 8.152 0 0 0-11.486 1.008c-53.04 63.24-151.327 58.059-152.671 57.977v.009a8.2 8.2 0 0 0-1.253.009 8.152 8.152 0 0 0-7.381 8.857l.772 8.501h-1.35a25.42 25.42 0 0 0-15.243 5.058 121.064 121.064 0 0 1-2.694-25.41c0-29.348 11.509-57.051 32.406-78.007 21.333-21.393 50.167-33.175 81.191-33.175s59.857 11.781 81.191 33.175c20.897 20.955 32.406 48.658 32.406 78.007 0 9.901-1.215 18.547-2.694 25.411a25.412 25.412 0 0 0-15.243-5.059h-1.35l.773-8.502a8.15 8.15 0 0 0-2.355-6.503l-17.393-17.393a8.152 8.152 0 0 0-11.529 0 8.152 8.152 0 0 0 0 11.529l14.693 14.693-5.805 63.855c-6.658 5.889-27.775 20.588-72.694 20.588a8.153 8.153 0 0 0-8.153 8.153 8.153 8.153 0 0 0 8.153 8.153c31.214 0 52.574-6.536 66.428-13.435a26.612 26.612 0 0 1-8.203 7.091l-45.291 25.162c-8.099 4.499-17.769 4.499-25.867 0l-45.291-25.162a26.616 26.616 0 0 1-13.589-20.871zm20.765 83.224a25.477 25.477 0 0 0 15.72-23.58v-7.402l14.476 8.043c6.529 3.626 13.69 5.441 20.853 5.441s14.324-1.813 20.853-5.441l14.476-8.043v7.402a25.474 25.474 0 0 0 15.72 23.58l8.552 3.563c-15.294 17.756-30.075 26.578-40.086 30.892-11.073 4.771-18.74 5.163-19.516 5.192-.776-.028-8.443-.421-19.516-5.192-10.011-4.313-24.791-13.136-40.086-30.892l8.554-3.563zM16.306 473.41v-52.178c0-2.248.417-4.422 1.189-6.436l27.952 22.363a17.844 17.844 0 0 1 6.731 14.006v31.486H25.546c-5.095-.001-9.24-4.146-9.24-9.241zm279.371 0c0 5.095-4.145 9.24-9.24 9.24h-26.633v-31.486a17.852 17.852 0 0 1 6.731-14.007l27.952-22.362a17.96 17.96 0 0 1 1.189 6.436v52.179z"/><path d="M145.944 243.765c-3.896-8.085-13.292-13.311-23.939-13.311s-20.043 5.225-23.939 13.311a8.153 8.153 0 1 0 14.691 7.077c.953-1.978 4.519-4.082 9.249-4.082s8.295 2.103 9.249 4.082a8.152 8.152 0 1 0 14.689-7.077zm23.902 10.884a8.154 8.154 0 0 0 10.884-3.807c.953-1.978 4.519-4.082 9.249-4.082s8.295 2.103 9.249 4.082a8.152 8.152 0 0 0 10.884 3.807 8.154 8.154 0 0 0 3.807-10.884c-3.895-8.085-13.291-13.311-23.939-13.311s-20.043 5.225-23.939 13.311a8.151 8.151 0 0 0 3.805 10.884zM408.187 13.045c-57.243 0-103.813 46.57-103.813 103.813 0 30.035 12.718 57.98 35.132 77.723-11.247 18.412-23.453 29.023-23.578 29.131a8.153 8.153 0 0 0 5.939 14.327c1.341-.107 31.956-2.721 59.114-20.983a103.87 103.87 0 0 0 27.207 3.616c57.243 0 103.813-46.57 103.813-103.813S465.43 13.045 408.187 13.045zm0 191.32a87.484 87.484 0 0 1-26.236-4.011 8.15 8.15 0 0 0-7.248 1.194c-10.038 7.327-21.056 12.056-30.517 15.084a161.753 161.753 0 0 0 12.989-20.038 8.154 8.154 0 0 0-2.185-10.378c-21.805-16.751-34.311-42.032-34.311-69.358 0-48.252 39.256-87.507 87.507-87.507s87.507 39.256 87.507 87.507-39.254 87.507-87.506 87.507z"/><path d="M416.883 107.618c4.503 0 8.153-3.65 8.153-8.153s-3.65-8.153-8.153-8.153H399.49c-4.503 0-8.153 3.65-8.153 8.153s3.65 8.153 8.153 8.153h.544v53.265h-.544c-4.503 0-8.153 3.65-8.153 8.153s3.65 8.153 8.153 8.153h17.393c4.503 0 8.153-3.65 8.153-8.153s-3.65-8.153-8.153-8.153h-.544v-53.265h.544z"/></svg>