<svg xmlns="http://www.w3.org/2000/svg" viewBox="0 0 511.999 511.999" style="enable-background:new 0 0 511.999 511.999" xml:space="preserve"><path style="fill:#ccd8e5" d="M503.665 66.8v316.343c0 17.909-14.509 32.429-32.417 32.429H40.754c-17.909 0-32.418-14.52-32.418-32.429V66.8c0-17.909 14.509-32.429 32.418-32.429h430.493c17.908 0 32.418 14.52 32.418 32.429z"/><path style="fill:#dfeaf4" d="M503.665 66.8v316.343c0 17.909-14.509 32.429-32.417 32.429H183.344l23.752-57.925L339.655 34.371h131.592c17.908 0 32.418 14.52 32.418 32.429z"/><path style="fill:#b8e9f2" d="M503.665 66.8v290.847H8.337V66.8c0-17.909 14.509-32.429 32.418-32.429h430.493c17.907 0 32.417 14.52 32.417 32.429z"/><path style="fill:#d4f7fc" d="M503.665 66.8v290.847H207.097L339.655 34.371h131.592c17.908 0 32.418 14.52 32.418 32.429z"/><path style="fill:#ccd8e5" d="M343.454 480.173H168.547l12.487-29.218 15.131-35.384h119.671l15.131 35.384z"/><path style="fill:#bac6d1" d="M330.967 450.955H181.034l15.131-35.384h119.671z"/><path d="M326.752 266.245a8.304 8.304 0 0 1-5.892-2.441 8.331 8.331 0 0 1 0-11.783l47.92-47.919-47.92-47.92a8.331 8.331 0 0 1 0-11.783 8.332 8.332 0 0 1 11.784 0l53.811 53.811a8.331 8.331 0 0 1 0 11.783l-53.811 53.811a8.308 8.308 0 0 1-5.892 2.441zm-141.502 0a8.3 8.3 0 0 1-5.891-2.441l-53.811-53.811a8.331 8.331 0 0 1 0-11.783l53.811-53.811a8.331 8.331 0 0 1 11.783 0 8.331 8.331 0 0 1 0 11.783l-47.919 47.92 47.919 47.919a8.331 8.331 0 0 1 0 11.783 8.308 8.308 0 0 1-5.892 2.441zm46.052 24.176a8.332 8.332 0 0 1-7.946-10.851l49.405-155.967a8.332 8.332 0 1 1 15.885 5.033l-49.404 155.967a8.336 8.336 0 0 1-7.94 5.818z"/><path d="M471.246 24.766H40.754C18.283 24.766 0 43.049 0 65.52v59.227a8.332 8.332 0 0 0 16.664 0V65.52c0-13.284 10.807-24.09 24.09-24.09h430.492c13.284 0 24.09 10.807 24.09 24.09v284.411h-52.21a8.332 8.332 0 0 0 0 16.664h52.21v15.273c0 13.284-10.807 24.09-24.09 24.09H40.754c-13.284 0-24.09-10.807-24.09-24.09v-15.273h398.688a8.332 8.332 0 0 0 0-16.664H16.664V152.522a8.332 8.332 0 0 0-16.664 0V381.87c0 22.472 18.283 40.754 40.754 40.754H183.54l-20.494 47.945h-40.034a8.332 8.332 0 0 0 0 16.664h265.975a8.332 8.332 0 0 0 0-16.664h-40.034l-20.494-47.945h142.786c22.472 0 40.754-18.282 40.754-40.754V65.52c.001-22.471-18.282-40.754-40.753-40.754zM330.83 470.568H181.17l14.238-33.31h121.185l14.237 33.31z"/><path d="M253.972 376.221c-3.517.879-6.116 4.048-6.291 7.67-.364 7.534 9.106 11.629 14.33 6.172 2.663-2.782 3.078-7.177.913-10.385-1.914-2.906-5.583-4.299-8.952-3.457z"/></svg>