<svg xmlns="http://www.w3.org/2000/svg" viewBox="0 0 512 512" style="enable-background:new 0 0 512 512" xml:space="preserve"><circle style="fill:#bbb" cx="82.76" cy="371.76" r="41.384"/><path style="fill:#333" d="m80.92 512-39.536-86.44S0 426.48 0 464.184V512h80.92zm3.68 0 39.544-86.44s41.384.92 41.384 38.624V512H84.6z"/><path style="fill:#e21b1b" d="m53.84 425.56 28.92 64.368 28.92-64.368z"/><circle style="fill:#bbb" cx="429.24" cy="371.76" r="41.384"/><path style="fill:#333" d="m427.4 512-39.544-86.44s-41.384.92-41.384 38.624V512H427.4zm3.68 0 39.544-86.44S512 426.48 512 464.184V512h-80.92z"/><path style="fill:#e21b1b" d="m400.32 425.56 28.92 64.368 28.92-64.368z"/><circle style="fill:#bbb" cx="429.24" cy="41.384" r="41.384"/><path style="fill:#333" d="M427.4 181.664 387.856 95.2s-41.384.92-41.384 38.624v47.816l80.928.024zm3.68 0L470.616 95.2S512 96.144 512 133.848v47.816h-80.92z"/><path style="fill:#e21b1b" d="m400.32 95.224 28.92 64.368 28.92-64.368z"/><circle style="fill:#bbb" cx="82.76" cy="41.384" r="41.384"/><path style="fill:#333" d="M80.92 181.664 41.384 95.2S0 96.144 0 133.848v47.816h80.92zm3.68 0L124.144 95.2s41.384.92 41.384 38.624v47.816l-80.928.024z"/><path style="fill:#e21b1b" d="m53.84 95.224 28.92 64.368 28.92-64.368z"/><circle style="fill:#bbb" cx="256" cy="206.552" r="41.384"/><path style="fill:#333" d="m254.16 346.832-39.544-86.44s-41.384.92-41.384 38.624v47.816h80.928zm3.68 0 39.544-86.44s41.384.92 41.384 38.624v47.816H257.84z"/><path style="fill:#e21b1b" d="M227.08 260.392 256 324.76l28.92-64.368z"/></svg>