<?xml version="1.0" encoding="iso-8859-1"?>
<!-- Generator: Adobe Illustrator 19.0.0, SVG Export Plug-In . SVG Version: 6.00 Build 0)  -->
<!-- License: CC0 License. Made by SVG Repo: https://www.svgrepo.com/svg/299065/note-register -->
<svg version="1.1" id="Layer_1" xmlns="http://www.w3.org/2000/svg" xmlns:xlink="http://www.w3.org/1999/xlink" x="0px" y="0px"
	 viewBox="0 0 512 512" style="enable-background:new 0 0 512 512;" xml:space="preserve">
<polygon style="fill:#FFFFFF;" points="478.609,144.696 478.609,111.304 411.826,111.304 411.826,144.696 378.435,144.696 
	378.435,0 378.435,0 378.435,0 0,0 0,0 0,0 0,512 378.435,512 378.435,311.652 411.826,311.652 411.826,278.261 445.217,278.261 
	445.217,244.87 478.609,244.87 478.609,211.478 512,211.478 512,144.696 "/>
<polygon style="fill:#FFDAAA;" points="478.609,144.696 478.609,111.304 411.826,111.304 411.826,144.696 378.435,144.696 
	378.435,178.087 345.043,178.087 345.043,211.478 311.652,211.478 311.652,244.87 278.261,244.87 278.261,278.261 244.87,278.261 
	244.87,311.652 211.478,311.652 211.478,345.043 178.087,345.043 178.087,445.217 278.261,445.217 278.261,411.826 311.652,411.826 
	311.652,378.435 345.043,378.435 345.043,345.043 378.435,345.043 378.435,311.652 411.826,311.652 411.826,278.261 
	445.217,278.261 445.217,244.87 478.609,244.87 478.609,211.478 512,211.478 512,144.696 "/>
<polygon style="fill:#FF9811;" points="478.609,144.696 478.609,111.304 411.826,111.304 411.826,144.696 378.435,144.696 
	378.435,178.087 345.043,178.087 345.043,211.478 311.652,211.478 311.652,244.87 278.261,244.87 278.261,278.261 244.87,278.261 
	244.87,311.652 211.478,311.652 211.478,345.043 244.87,345.043 244.87,378.435 278.261,378.435 278.261,411.826 311.652,411.826 
	311.652,378.435 345.043,378.435 345.043,345.043 378.435,345.043 378.435,311.652 411.826,311.652 411.826,278.261 
	445.217,278.261 445.217,244.87 478.609,244.87 478.609,211.478 512,211.478 512,144.696 "/>
<polygon style="fill:#FFFFFF;" points="478.609,144.696 478.609,111.304 411.826,111.304 411.826,178.087 445.217,178.087 
	445.217,211.478 512,211.478 512,144.696 "/>
<polygon points="378.435,311.652 345.043,311.652 345.043,345.043 311.652,345.043 311.652,378.435 345.043,378.435 
	345.043,478.609 33.391,478.609 33.391,33.391 345.043,33.391 345.043,211.478 311.652,211.478 311.652,244.87 345.043,244.87 
	345.043,211.478 378.435,211.478 378.435,211.478 378.435,211.478 378.435,178.087 411.826,178.087 411.826,144.696 
	378.435,144.696 378.435,0 378.435,0 378.435,0 0,0 0,0 0,0 0,512 378.435,512 378.435,311.652 "/>
<rect x="77.913" y="77.913" width="222.609" height="33.391"/>
<rect x="77.913" y="155.826" width="222.609" height="33.391"/>
<rect x="378.435" y="278.261" width="33.391" height="33.391"/>
<rect x="411.826" y="244.87" width="33.391" height="33.391"/>
<rect x="445.217" y="211.478" width="33.391" height="33.391"/>
<rect x="478.609" y="144.696" width="33.391" height="66.783"/>
<rect x="211.478" y="311.652" width="33.391" height="33.391"/>
<rect x="244.87" y="278.261" width="33.391" height="33.391"/>
<rect x="278.261" y="244.87" width="33.391" height="33.391"/>
<rect x="411.826" y="111.304" width="66.783" height="33.391"/>
<polygon points="178.087,411.826 77.913,411.826 77.913,445.217 278.261,445.217 278.261,411.826 311.652,411.826 311.652,378.435 
	278.261,378.435 278.261,411.826 211.478,411.826 211.478,345.043 178.087,345.043 "/>
<g>
</g>
<g>
</g>
<g>
</g>
<g>
</g>
<g>
</g>
<g>
</g>
<g>
</g>
<g>
</g>
<g>
</g>
<g>
</g>
<g>
</g>
<g>
</g>
<g>
</g>
<g>
</g>
<g>
</g>
</svg>
