<svg xmlns="http://www.w3.org/2000/svg" viewBox="0 0 512 512" style="enable-background:new 0 0 512 512" xml:space="preserve"><path style="fill:#fbba00" d="M341.334 60.776 170.666 85.542 0 60.776v365.682l170.666 24.765 170.668-24.765L512 451.223V85.542z"/><path style="fill:#fbdb80" d="M0 60.776v365.682l170.666 24.765V85.542z"/><path style="fill:#f28e00" d="M341.334 60.776v365.682L512 451.223V85.542z"/><path style="fill:#fbba00" d="m38.437 263.279 93.793 17.407v-31.892L38.437 231.38zm0-108 93.793 17.39v-31.873l-93.793-17.432zm0 53.999 93.793 17.4v-31.882l-93.793-17.425zm0 108 93.793 17.351v-31.834l-93.793-17.407zm0 53.999 93.793 17.36v-31.843l-93.793-17.463z"/><path style="fill:#c60" d="m379.77 263.279 93.793 17.407v-31.892L379.77 231.38zm0 107.998 93.793 17.36v-31.843l-93.793-17.463zm0-215.998 93.793 17.39v-31.873l-93.793-17.432zm0 53.999 93.793 17.4v-31.882l-93.793-17.425zm0 108 93.793 17.351v-31.834l-93.793-17.407z"/><path style="fill:#f28e00" d="m209.104 226.678 93.792-17.4v-31.907l-93.792 17.425zm0 161.959 93.793-17.359V231.38l-93.793 17.415v139.842zm31.346-113.768 31.099-5.772v76.071l-31.099 5.791v-76.09zm-31.346-102.2 93.792-17.39v-31.915l-93.792 17.432z"/><g/><g/><g/><g/><g/><g/><g/><g/><g/><g/><g/><g/><g/><g/><g/></svg>