<svg xmlns="http://www.w3.org/2000/svg" viewBox="0 0 511.999 511.999" style="enable-background:new 0 0 511.999 511.999" xml:space="preserve"><path style="fill:#fed159" d="M174.655 73.344h164.804v123.612H174.655z"/><path style="fill:#82dcc7" d="M10.426 142.965h493.275v295.907H10.426z"/><circle style="fill:#fff" cx="139.956" cy="294.284" r="89.886"/><circle style="fill:#fcd589" cx="139.956" cy="280.661" r="32.893"/><path style="fill:#f64b4a" d="M186.612 360.219v10.9c-13.597 8.278-29.579 13.048-46.66 13.048s-33.051-4.77-46.648-13.035v-10.913c0-25.784 20.877-46.66 46.648-46.66 25.771-.001 46.66 20.876 46.66 46.66z"/><path d="M502.635 133.493H182.96V82.601h146.078v29.965a9.365 9.365 0 0 0 9.365 9.365 9.365 9.365 0 0 0 9.365-9.365v-39.33a9.365 9.365 0 0 0-9.365-9.365H173.595a9.365 9.365 0 0 0-9.365 9.365v60.257H9.365A9.365 9.365 0 0 0 0 142.858v295.905a9.365 9.365 0 0 0 9.365 9.365h62.564c5.173 0 9.365-4.193 9.365-9.365s-4.192-9.365-9.365-9.365h-53.2V152.222h474.542v277.176h-385.76c-5.173 0-9.365 4.193-9.365 9.365s4.192 9.365 9.365 9.365h395.123a9.365 9.365 0 0 0 9.365-9.365V142.857c.001-5.171-4.192-9.364-9.364-9.364z"/><path d="M138.889 213.648c16.623 0 32.576 5.021 46.136 14.518a9.365 9.365 0 1 0 10.744-15.34c-16.725-11.714-36.393-17.906-56.882-17.906-54.728 0-99.252 44.524-99.252 99.252 0 34.947 17.846 66.667 47.739 84.853 15.495 9.419 33.308 14.399 51.513 14.399 18.223 0 36.042-4.984 51.529-14.413 29.883-18.181 47.724-49.896 47.724-84.839 0-19.89-5.863-39.081-16.956-55.499-2.896-4.285-8.717-5.411-13.003-2.517a9.366 9.366 0 0 0-2.517 13.002c8.994 13.31 13.747 28.875 13.747 45.015 0 22.505-9.131 43.355-25.025 58.38-2.349-17.341-12.655-32.182-27.117-40.717 8.519-7.736 13.877-18.895 13.877-31.281 0-23.302-18.958-42.258-42.258-42.258S96.63 257.253 96.63 280.555c0 12.387 5.359 23.547 13.878 31.284-14.463 8.537-24.769 23.379-27.116 40.721-15.896-15.027-25.028-35.879-25.028-58.384.002-44.405 36.126-80.528 80.525-80.528zm0 43.375c12.974 0 23.529 10.554 23.529 23.529s-10.554 23.529-23.529 23.529-23.529-10.556-23.529-23.529 10.556-23.529 23.529-23.529zm.002 65.79c20.562 0 37.29 16.728 37.29 37.291v5.444a80.386 80.386 0 0 1-37.292 9.146 80.463 80.463 0 0 1-37.288-9.142v-5.448c-.001-20.562 16.728-37.291 37.29-37.291zM446.492 213.65c5.173 0 9.365-4.193 9.365-9.365s-4.192-9.365-9.365-9.365h-39.329c-5.173 0-9.365 4.193-9.365 9.365s4.192 9.365 9.365 9.365h39.329zm-142.334 0h71.79c5.173 0 9.365-4.193 9.365-9.365s-4.192-9.365-9.365-9.365h-71.79c-5.173 0-9.365 4.193-9.365 9.365s4.192 9.365 9.365 9.365zm142.334 65.595h-83.027c-5.173 0-9.365 4.193-9.365 9.365s4.192 9.365 9.365 9.365h83.027a9.365 9.365 0 0 0 0-18.73zm-142.334 18.729h28.091c5.173 0 9.365-4.193 9.365-9.365s-4.192-9.365-9.365-9.365h-28.091c-5.173 0-9.365 4.193-9.365 9.365s4.192 9.365 9.365 9.365zm0 95.448h142.334a9.365 9.365 0 0 0 9.365-9.365 9.365 9.365 0 0 0-9.365-9.365H304.158a9.365 9.365 0 0 0-9.365 9.365c.001 5.172 4.192 9.365 9.365 9.365zm0-137.611h142.334c5.173 0 9.365-4.193 9.365-9.365s-4.192-9.365-9.365-9.365H304.158c-5.173 0-9.365 4.193-9.365 9.365s4.192 9.365 9.365 9.365z"/><g/><g/><g/><g/><g/><g/><g/><g/><g/><g/><g/><g/><g/><g/><g/></svg>