<svg xmlns="http://www.w3.org/2000/svg" width="512" height="512" viewBox="0 0 512 512" xml:space="preserve"><path fill="#F6BB42" d="M490.672 383.996H21.336V85.332h21.336V42.66h128L192 85.332h298.672z"/><path fill="#FFCE54" d="M490.672 447.996H21.336L0 128.004h512z"/><path fill="#434A54" d="M426.672 234.66c-35.359 0-64 28.656-64 63.992v96h128v-96c0-35.336-28.656-63.992-64-63.992zm42.672 138.68H384v-74.688c0-23.5 19.141-42.648 42.672-42.648 23.516 0 42.672 19.148 42.672 42.648v74.688z"/><path fill="#ED5564" d="M341.344 319.996H512V469.34H341.344z"/><path fill="#434A54" d="M441.953 382.465c0 8.844-7.172 16-16 16h-4c-8.828 0-16-7.156-16-16 0-8.812 7.172-16 16-16h4c8.828 0 16 7.187 16 16z"/><path fill="#656D78" d="M458.672 383.996c0-17.656-14.328-32-32-32s-32 14.344-32 32c0 13.938 8.906 25.781 21.328 30.188v12.469c0 5.906 4.781 10.688 10.672 10.688s10.672-4.781 10.672-10.688v-12.469c12.422-4.407 21.328-16.25 21.328-30.188zm-32 10.656c-5.891 0-10.672-4.781-10.672-10.656s4.781-10.656 10.672-10.656 10.672 4.781 10.672 10.656-4.782 10.656-10.672 10.656z"/><path fill="#E6E9ED" d="M64 191.988h277.344v106.664H64z"/><path d="m151.812 246.754-2.469-1.422 2.469-1.438c5.102-2.938 6.852-9.469 3.906-14.562-2.945-5.109-9.469-6.859-14.57-3.906l-2.477 1.422v-2.859c0-5.891-4.773-10.656-10.664-10.656s-10.664 4.766-10.664 10.656v2.859l-2.477-1.422c-5.102-2.953-11.625-1.203-14.57 3.906-2.945 5.094-1.203 11.625 3.898 14.562l2.477 1.438-2.477 1.422c-5.102 2.953-6.844 9.469-3.898 14.578 2.945 5.094 9.469 6.844 14.57 3.891l2.477-1.422v2.859c0 5.898 4.773 10.68 10.664 10.68s10.664-4.781 10.664-10.68v-2.859l2.477 1.422c5.102 2.953 11.625 1.203 14.57-3.891 2.946-5.109 1.196-11.625-3.906-14.578zm74.665 0L224 245.332l2.477-1.438c5.102-2.938 6.852-9.469 3.906-14.562-2.945-5.109-9.469-6.859-14.57-3.906l-2.477 1.422v-2.844c0-5.906-4.773-10.672-10.664-10.672S192 218.098 192 224.004v2.844l-2.469-1.422c-5.109-2.953-11.625-1.203-14.578 3.906-2.945 5.094-1.195 11.625 3.906 14.562l2.477 1.438-2.477 1.422c-5.102 2.953-6.852 9.469-3.906 14.578 2.945 5.094 9.469 6.844 14.578 3.906L192 263.8v2.859c0 5.898 4.781 10.68 10.672 10.68s10.664-4.781 10.664-10.68V263.8l2.477 1.438c5.102 2.938 11.625 1.188 14.57-3.906 2.945-5.109 1.195-11.625-3.906-14.578zm74.679 0-2.484-1.422 2.484-1.438c5.094-2.938 6.844-9.469 3.891-14.562-2.953-5.109-9.469-6.859-14.578-3.906L288 226.848v-2.844c0-5.906-4.781-10.672-10.656-10.672a10.662 10.662 0 0 0-10.672 10.672v2.844l-2.477-1.422c-5.102-2.953-11.625-1.203-14.57 3.906-2.945 5.094-1.195 11.625 3.906 14.562l2.469 1.438-2.469 1.422c-5.102 2.953-6.852 9.469-3.906 14.578 2.945 5.094 9.469 6.844 14.57 3.906l2.477-1.438v2.859c0 5.898 4.773 10.68 10.672 10.68 5.875 0 10.656-4.781 10.656-10.68v-2.86l2.469 1.438c5.109 2.938 11.625 1.188 14.578-3.906 2.953-5.108 1.203-11.624-3.891-14.577z" fill="#434A54"/></svg>